<svg xmlns="http://www.w3.org/2000/svg" xmlns:xlink="http://www.w3.org/1999/xlink" width="762" height="620" viewBox="0 0 762 620" preserveAspectRatio="none">
	<defs>
		<g id="folder"><defs><filter id="a" filterUnits="userSpaceOnUse" x="7.699" y="438" width="498.973" height="15"><feColorMatrix values="1 0 0 0 0 0 1 0 0 0 0 0 1 0 0 0 0 0 1 0"/></filter></defs><mask maskUnits="userSpaceOnUse" x="7.699" y="438" width="498.973" height="15" id="c"><g filter="url(#a)"><linearGradient id="b" gradientUnits="userSpaceOnUse" x1="7.699" y1="445.5" x2="506.672" y2="445.5"><stop offset=".02"/><stop offset=".023" stop-color="#121212"/><stop offset=".032" stop-color="#444"/><stop offset=".042" stop-color="#707070"/><stop offset=".052" stop-color="#979797"/><stop offset=".064" stop-color="#B7B7B7"/><stop offset=".075" stop-color="#D1D1D1"/><stop offset=".088" stop-color="#E6E6E6"/><stop offset=".103" stop-color="#F4F4F4"/><stop offset=".121" stop-color="#FCFCFC"/><stop offset=".15" stop-color="#fff"/><stop offset=".85" stop-color="#fff"/><stop offset=".879" stop-color="#FCFCFC"/><stop offset=".897" stop-color="#F4F4F4"/><stop offset=".912" stop-color="#E6E6E6"/><stop offset=".925" stop-color="#D1D1D1"/><stop offset=".936" stop-color="#B7B7B7"/><stop offset=".948" stop-color="#979797"/><stop offset=".958" stop-color="#707070"/><stop offset=".968" stop-color="#444"/><stop offset=".977" stop-color="#121212"/><stop offset=".98"/></linearGradient><path fill="url(#b)" d="M7.699 438h498.973v15h-498.973z"/></g></mask><linearGradient id="d" gradientUnits="userSpaceOnUse" x1="257.185" y1="438" x2="257.185" y2="453"><stop offset="0" stop-opacity="0"/><stop offset=".3"/><stop offset="1" stop-opacity="0"/></linearGradient><path opacity=".8" mask="url(#c)" fill="url(#d)" d="M7.699 438h498.973v15h-498.973z"/><linearGradient id="e" gradientUnits="userSpaceOnUse" x1="256.367" y1="71.536" x2="257.352" y2="132.618"><stop offset=".17" stop-color="#ABC2D7"/><stop offset=".506" stop-color="#A9C0D6"/><stop offset=".673" stop-color="#A1BBD3"/><stop offset=".802" stop-color="#94B2CF"/><stop offset=".912" stop-color="#81A6C8"/><stop offset="1" stop-color="#6C97C0"/></linearGradient><path fill="url(#e)" d="M479.844 133.424c-.762-13.83-6.019-21.017-22.87-21.017h-217.402c-7.224 0-18.392-1.315-18.392-12.48.001-18.392-5.91-26.927-26.27-26.927h-114.286c-17.735 0-24.959 7.881-24.959 25.614 0 16.62-18.462 10.741-20.779 34.81h444.958z"/><path opacity=".27" fill="#fff" d="M456.974 113.393h-217.402c-7.224 0-18.392-1.315-18.392-12.48 0-18.393-5.911-26.928-26.271-26.928h-114.285c-9.368 0-15.778 2.224-19.765 6.911 4.021-3.343 9.846-4.94 17.793-4.94h114.289c20.357 0 26.269 8.536 26.269 26.928 0 11.164 11.168 12.48 18.392 12.48h217.401c16.024 0 21.556 6.512 22.718 19.046h2.123c-.762-13.832-6.019-21.017-22.87-21.017zm-415.995 5.355c3.398-3.05 7.11-4.941 9.645-7.941-2.897 2.502-6.556 4.475-9.645 7.941z"/><path stroke="#5088B1" stroke-width=".41" d="M479.844 133.424c-.762-13.83-6.019-21.017-22.87-21.017h-217.402c-7.224 0-18.392-1.315-18.392-12.48.001-18.392-5.91-26.927-26.27-26.927h-114.286c-17.735 0-24.959 7.881-24.959 25.614 0 16.618-18.462 10.741-20.779 34.81h444.958z" fill="none"/><radialGradient id="f" cx="325.454" cy="366.316" r="1.97" gradientTransform="matrix(205.529 0 0 -160.663 -66643.125 59018)" gradientUnits="userSpaceOnUse"><stop offset="0" stop-color="#BFD1E3"/><stop offset=".198" stop-color="#BACDE1"/><stop offset=".434" stop-color="#ABC3DB"/><stop offset=".689" stop-color="#93B3D1"/><stop offset=".957" stop-color="#729BC3"/><stop offset="1" stop-color="#6C97C0"/></radialGradient><path fill="url(#f)" d="M480.538 133.424h-447.602c-20.039 0-26.777 12.52-25.395 27.807 0 0 6.26 68.752 8.315 110.123 2.042 41.377 4.275 143.504 4.275 143.504 0 25.967-.338 28.076 28.567 28.076l417.544.193c27.274 0 28.108.141 28.108-27.773 0 0 .408-66.232 4.257-127.258 3.849-61.002 8.067-126.796 8.067-126.796.978-15.341-5.122-27.876-26.136-27.876"/><path stroke="#5088B1" stroke-width=".41" d="M480.538 133.424h-447.602c-20.039 0-26.777 12.52-25.395 27.807 0 0 6.26 68.752 8.315 110.123 2.042 41.377 4.275 143.504 4.275 143.504 0 25.967-.338 28.076 28.567 28.076l417.544.193c27.274 0 28.108.141 28.108-27.773 0 0 .408-66.232 4.257-127.258 3.849-61.002 8.067-126.796 8.067-126.796.978-15.341-5.122-27.876-26.136-27.876" fill="none"/><path opacity=".27" fill="#fff" d="M480.856 133.424h-447.602c-18.979 0-26.016 12.93-25.532 29.243.377-14.977 7.646-26.468 25.532-26.468h447.603c19.073 0 25.838 11.898 26.198 27.297.406-16.725-5.991-30.072-26.199-30.072z"/><path fill="#6790B7" d="M496.67 285.464c-3.818 61.026-4.221 127.26-4.221 127.26 0 27.912-.828 27.773-27.887 27.773l-414.248-.197c-28.678 0-28.346-2.107-28.346-28.074 0 0-2.215-102.129-4.239-143.502-2.041-41.37-10.938-115.442-10.218-107.494 0 0 6.26 68.752 8.315 110.123 2.039 41.375 4.275 143.502 4.275 143.502 0 25.965-.338 28.074 28.567 28.074l417.544.197c27.274 0 28.108.139 28.108-27.775 0 0 .408-66.232 4.257-127.258 3.848-61 8.066-126.794 8.066-126.794.51-7.972-6.155 63.166-9.973 124.165z"/><g stroke="#5088B1" stroke-width=".164" fill="none"><path d="M466.243 443.127l-417.544-.193c-28.905 0-28.567-2.109-28.567-28.076 0 0-2.233-102.127-4.275-143.504-2.056-41.372-8.316-110.124-8.316-110.124-1.383-15.287 5.355-27.807 25.395-27.807h447.603c21.014 0 27.114 12.535 26.138 27.875 0 0-4.219 65.794-8.067 126.796-3.849 61.026-4.257 127.258-4.257 127.258-.001 27.916-.835 27.775-28.11 27.775M480.538 133.424h-447.602c-20.039 0-26.777 12.52-25.395 27.807 0 0 6.26 68.752 8.315 110.123 2.042 41.377 4.275 143.504 4.275 143.504 0 25.967-.338 28.076 28.567 28.076l417.544.193c27.274 0 28.108.141 28.108-27.773 0 0 .408-66.232 4.257-127.258 3.849-61.002 8.067-126.796 8.067-126.796.978-15.341-5.122-27.876-26.136-27.876"/></g></g>
		<g id="file"><defs><clipPath id="j"><path d="M335 110c0-91.25-16.833-102-75-102h-184v472h360v-305c0-35.833 0-65-101-65z"/></clipPath><filter id="i"><feGaussianBlur in="SourceAlpha" stdDeviation="14" result="shadowBlur"/><feOffset dy="25" in="shadowBlur" result="shadowOffset"/><feComponentTransfer in="shadowOffset" result="shadow"><feFuncA type="linear" slope=".83"/></feComponentTransfer></filter><filter id="g"><feGaussianBlur in="SourceAlpha" result="glowBlur" stdDeviation="1"/><feOffset in="glowBlur" result="glowOffset"/><feComponentTransfer in="glowOffset" result="glow"><feFuncA type="linear" slope=".42"/></feComponentTransfer><feGaussianBlur in="SourceAlpha" result="shadowBlur" stdDeviation="7"/><feOffset in="shadowBlur" result="shadowOffset" dy="5"/><feComponentTransfer in="shadowOffset" result="shadow"><feFuncA type="linear" slope=".59"/></feComponentTransfer><feMerge><feMergeNode in="glow"/><feMergeNode in="shadow"/><feMergeNode in="SourceGraphic"/></feMerge></filter><linearGradient id="h" gradientUnits="userSpaceOnUse" x1="256" y1="34.001" x2="256" y2="506" gradientTransform="matrix(1 0 0 -1 0 514)"><stop offset=".2" stop-color="#fff"/><stop offset="1" stop-color="#e6e6e6"/></linearGradient><linearGradient id="k" gradientUnits="userSpaceOnUse" x1="332.101" y1="407.891" x2="369.101" y2="441.891" gradientTransform="matrix(1 0 0 -1 0 514)"><stop offset=".45" stop-color="#fff"/><stop offset=".59" stop-color="#f6f6f6"/><stop offset=".83" stop-color="#dbdbdb"/><stop offset="1" stop-color="#cacaca"/></linearGradient></defs><g filter="url(#g)"><path fill="url(#h)" d="M425.646 129.312l.004-.002-.092-.091-.11-.11-105.448-106.423c-7.931-9.018-19.438-13.045-35.031-14.686h-208.969v472h360v-317.305c-.17-12.8-1.534-24.324-10.354-33.383z"/><path filter="url(#i)" clip-path="url(#j)" d="M260 8l176-44v211c0-35.833 0-65-101-65 0-120.646-17.334-124.999-75-102z"/><path fill="url(#k)" d="M425.646 129.312l.004-.002-.092-.091-.11-.11-105.448-106.423c-7.931-9.018-19.438-13.045-35.031-14.686h-24.969c58.167 0 75 10.75 75 102 101 0 101 29.167 101 65v-12.305c-.17-12.8-1.534-24.324-10.354-33.383z"/><path fill="#fff" opacity=".7" d="M435.801 156.655c-.567-9.863-2.536-18.792-9.08-26.186l-.09-.101c-.288-.322-.586-.641-.891-.958-12.133-12.556-37.341-20.41-89.74-20.41 0-77.336-12.096-96.848-51.191-101h-24.809c58.167 0 75 10.75 75 102 101 0 101 29.167 101 65l-.199-18.345z"/></g></g>
		
		<filter id="grayscale">
			<feColorMatrix type="matrix" values="0.3333 0.3333 0.3333 0 0
			                                            0.3333 0.3333 0.3333 0 0
			                                            0.3333 0.3333 0.3333 0 0
			                                            0      0      0      1 0"/>
		</filter>
	</defs>
	
	<!-- TODO :: switch to external references when browsers permit -->
	<!--<use xlink:href="#folder" filter="url(#grayscale)"/>-->
	<use xlink:href="#folder"/>
	
	<use xlink:href="#file" x="250" y="60" transform="rotate(-20 512 512)"/>
	<use xlink:href="#file" x="250" y="60" transform="rotate(0 512 512)"/>
	<use xlink:href="#file" x="250" y="60" transform="rotate(10 512 512)"/>
</svg>