<svg xmlns="http://www.w3.org/2000/svg" width="512" height="512" viewBox="0 0 512 512" preserveAspectRatio="none"><defs><clipPath id="d"><path d="M335 110c0-91.25-16.833-102-75-102h-184v472h360v-305c0-35.833 0-65-101-65z"/></clipPath><filter id="c"><feGaussianBlur in="SourceAlpha" stdDeviation="14" result="shadowBlur"/><feOffset dy="25" in="shadowBlur" result="shadowOffset"/><feComponentTransfer in="shadowOffset" result="shadow"><feFuncA type="linear" slope=".83"/></feComponentTransfer></filter><filter id="a"><feGaussianBlur in="SourceAlpha" result="glowBlur" stdDeviation="1"/><feOffset in="glowBlur" result="glowOffset"/><feComponentTransfer in="glowOffset" result="glow"><feFuncA type="linear" slope=".42"/></feComponentTransfer><feGaussianBlur in="SourceAlpha" result="shadowBlur" stdDeviation="7"/><feOffset in="shadowBlur" result="shadowOffset" dy="5"/><feComponentTransfer in="shadowOffset" result="shadow"><feFuncA type="linear" slope=".59"/></feComponentTransfer><feMerge><feMergeNode in="glow"/><feMergeNode in="shadow"/><feMergeNode in="SourceGraphic"/></feMerge></filter><linearGradient id="b" gradientUnits="userSpaceOnUse" x1="256" y1="34.001" x2="256" y2="506" gradientTransform="matrix(1 0 0 -1 0 514)"><stop offset=".2" stop-color="#fff"/><stop offset="1" stop-color="#e6e6e6"/></linearGradient><linearGradient id="e" gradientUnits="userSpaceOnUse" x1="332.101" y1="407.891" x2="369.101" y2="441.891" gradientTransform="matrix(1 0 0 -1 0 514)"><stop offset=".45" stop-color="#fff"/><stop offset=".59" stop-color="#f6f6f6"/><stop offset=".83" stop-color="#dbdbdb"/><stop offset="1" stop-color="#cacaca"/></linearGradient></defs><g filter="url(#a)"><path fill="url(#b)" d="M425.646 129.312l.004-.002-.092-.091-.11-.11-105.448-106.423c-7.931-9.018-19.438-13.045-35.031-14.686h-208.969v472h360v-317.305c-.17-12.8-1.534-24.324-10.354-33.383z"/><path filter="url(#c)" clip-path="url(#d)" d="M260 8l176-44v211c0-35.833 0-65-101-65 0-120.646-17.334-124.999-75-102z"/><path fill="url(#e)" d="M425.646 129.312l.004-.002-.092-.091-.11-.11-105.448-106.423c-7.931-9.018-19.438-13.045-35.031-14.686h-24.969c58.167 0 75 10.75 75 102 101 0 101 29.167 101 65v-12.305c-.17-12.8-1.534-24.324-10.354-33.383z"/><path fill="#fff" opacity=".7" d="M435.801 156.655c-.567-9.863-2.536-18.792-9.08-26.186l-.09-.101c-.288-.322-.586-.641-.891-.958-12.133-12.556-37.341-20.41-89.74-20.41 0-77.336-12.096-96.848-51.191-101h-24.809c58.167 0 75 10.75 75 102 101 0 101 29.167 101 65l-.199-18.345z"/></g></svg>