<svg xmlns="http://www.w3.org/2000/svg" width="512" height="512" viewBox="0 0 512 512" preserveAspectRatio="none"><defs><filter id="a" filterUnits="userSpaceOnUse" x="7.699" y="438" width="498.973" height="15"><feColorMatrix values="1 0 0 0 0 0 1 0 0 0 0 0 1 0 0 0 0 0 1 0"/></filter></defs><mask maskUnits="userSpaceOnUse" x="7.699" y="438" width="498.973" height="15" id="c"><g filter="url(#a)"><linearGradient id="b" gradientUnits="userSpaceOnUse" x1="7.699" y1="445.5" x2="506.672" y2="445.5"><stop offset=".02"/><stop offset=".023" stop-color="#121212"/><stop offset=".032" stop-color="#444"/><stop offset=".042" stop-color="#707070"/><stop offset=".052" stop-color="#979797"/><stop offset=".064" stop-color="#B7B7B7"/><stop offset=".075" stop-color="#D1D1D1"/><stop offset=".088" stop-color="#E6E6E6"/><stop offset=".103" stop-color="#F4F4F4"/><stop offset=".121" stop-color="#FCFCFC"/><stop offset=".15" stop-color="#fff"/><stop offset=".85" stop-color="#fff"/><stop offset=".879" stop-color="#FCFCFC"/><stop offset=".897" stop-color="#F4F4F4"/><stop offset=".912" stop-color="#E6E6E6"/><stop offset=".925" stop-color="#D1D1D1"/><stop offset=".936" stop-color="#B7B7B7"/><stop offset=".948" stop-color="#979797"/><stop offset=".958" stop-color="#707070"/><stop offset=".968" stop-color="#444"/><stop offset=".977" stop-color="#121212"/><stop offset=".98"/></linearGradient><path fill="url(#b)" d="M7.699 438h498.973v15h-498.973z"/></g></mask><linearGradient id="d" gradientUnits="userSpaceOnUse" x1="257.185" y1="438" x2="257.185" y2="453"><stop offset="0" stop-opacity="0"/><stop offset=".3"/><stop offset="1" stop-opacity="0"/></linearGradient><path opacity=".8" mask="url(#c)" fill="url(#d)" d="M7.699 438h498.973v15h-498.973z"/><linearGradient id="e" gradientUnits="userSpaceOnUse" x1="256.367" y1="71.536" x2="257.352" y2="132.618"><stop offset=".17" stop-color="#ABC2D7"/><stop offset=".506" stop-color="#A9C0D6"/><stop offset=".673" stop-color="#A1BBD3"/><stop offset=".802" stop-color="#94B2CF"/><stop offset=".912" stop-color="#81A6C8"/><stop offset="1" stop-color="#6C97C0"/></linearGradient><path fill="url(#e)" d="M479.844 133.424c-.762-13.83-6.019-21.017-22.87-21.017h-217.402c-7.224 0-18.392-1.315-18.392-12.48.001-18.392-5.91-26.927-26.27-26.927h-114.286c-17.735 0-24.959 7.881-24.959 25.614 0 16.62-18.462 10.741-20.779 34.81h444.958z"/><path opacity=".27" fill="#fff" d="M456.974 113.393h-217.402c-7.224 0-18.392-1.315-18.392-12.48 0-18.393-5.911-26.928-26.271-26.928h-114.285c-9.368 0-15.778 2.224-19.765 6.911 4.021-3.343 9.846-4.94 17.793-4.94h114.289c20.357 0 26.269 8.536 26.269 26.928 0 11.164 11.168 12.48 18.392 12.48h217.401c16.024 0 21.556 6.512 22.718 19.046h2.123c-.762-13.832-6.019-21.017-22.87-21.017zm-415.995 5.355c3.398-3.05 7.11-4.941 9.645-7.941-2.897 2.502-6.556 4.475-9.645 7.941z"/><path stroke="#5088B1" stroke-width=".41" d="M479.844 133.424c-.762-13.83-6.019-21.017-22.87-21.017h-217.402c-7.224 0-18.392-1.315-18.392-12.48.001-18.392-5.91-26.927-26.27-26.927h-114.286c-17.735 0-24.959 7.881-24.959 25.614 0 16.618-18.462 10.741-20.779 34.81h444.958z" fill="none"/><radialGradient id="f" cx="325.454" cy="366.316" r="1.97" gradientTransform="matrix(205.529 0 0 -160.663 -66643.125 59018)" gradientUnits="userSpaceOnUse"><stop offset="0" stop-color="#BFD1E3"/><stop offset=".198" stop-color="#BACDE1"/><stop offset=".434" stop-color="#ABC3DB"/><stop offset=".689" stop-color="#93B3D1"/><stop offset=".957" stop-color="#729BC3"/><stop offset="1" stop-color="#6C97C0"/></radialGradient><path fill="url(#f)" d="M480.538 133.424h-447.602c-20.039 0-26.777 12.52-25.395 27.807 0 0 6.26 68.752 8.315 110.123 2.042 41.377 4.275 143.504 4.275 143.504 0 25.967-.338 28.076 28.567 28.076l417.544.193c27.274 0 28.108.141 28.108-27.773 0 0 .408-66.232 4.257-127.258 3.849-61.002 8.067-126.796 8.067-126.796.978-15.341-5.122-27.876-26.136-27.876"/><path stroke="#5088B1" stroke-width=".41" d="M480.538 133.424h-447.602c-20.039 0-26.777 12.52-25.395 27.807 0 0 6.26 68.752 8.315 110.123 2.042 41.377 4.275 143.504 4.275 143.504 0 25.967-.338 28.076 28.567 28.076l417.544.193c27.274 0 28.108.141 28.108-27.773 0 0 .408-66.232 4.257-127.258 3.849-61.002 8.067-126.796 8.067-126.796.978-15.341-5.122-27.876-26.136-27.876" fill="none"/><path opacity=".27" fill="#fff" d="M480.856 133.424h-447.602c-18.979 0-26.016 12.93-25.532 29.243.377-14.977 7.646-26.468 25.532-26.468h447.603c19.073 0 25.838 11.898 26.198 27.297.406-16.725-5.991-30.072-26.199-30.072z"/><path fill="#6790B7" d="M496.67 285.464c-3.818 61.026-4.221 127.26-4.221 127.26 0 27.912-.828 27.773-27.887 27.773l-414.248-.197c-28.678 0-28.346-2.107-28.346-28.074 0 0-2.215-102.129-4.239-143.502-2.041-41.37-10.938-115.442-10.218-107.494 0 0 6.26 68.752 8.315 110.123 2.039 41.375 4.275 143.502 4.275 143.502 0 25.965-.338 28.074 28.567 28.074l417.544.197c27.274 0 28.108.139 28.108-27.775 0 0 .408-66.232 4.257-127.258 3.848-61 8.066-126.794 8.066-126.794.51-7.972-6.155 63.166-9.973 124.165z"/><g stroke="#5088B1" stroke-width=".164" fill="none"><path d="M466.243 443.127l-417.544-.193c-28.905 0-28.567-2.109-28.567-28.076 0 0-2.233-102.127-4.275-143.504-2.056-41.372-8.316-110.124-8.316-110.124-1.383-15.287 5.355-27.807 25.395-27.807h447.603c21.014 0 27.114 12.535 26.138 27.875 0 0-4.219 65.794-8.067 126.796-3.849 61.026-4.257 127.258-4.257 127.258-.001 27.916-.835 27.775-28.11 27.775M480.538 133.424h-447.602c-20.039 0-26.777 12.52-25.395 27.807 0 0 6.26 68.752 8.315 110.123 2.042 41.377 4.275 143.504 4.275 143.504 0 25.967-.338 28.076 28.567 28.076l417.544.193c27.274 0 28.108.141 28.108-27.773 0 0 .408-66.232 4.257-127.258 3.849-61.002 8.067-126.796 8.067-126.796.978-15.341-5.122-27.876-26.136-27.876"/></g></svg>