<svg xmlns="http://www.w3.org/2000/svg" width="512" height="512" viewBox="0 0 512 512" preserveAspectRatio="none"><defs><filter id="a" filterUnits="userSpaceOnUse" x="7.699" y="438" width="498.973" height="15"><feColorMatrix values="1 0 0 0 0 0 1 0 0 0 0 0 1 0 0 0 0 0 1 0"/></filter></defs><mask maskUnits="userSpaceOnUse" x="7.699" y="438" width="498.973" height="15" id="c"><g filter="url(#a)"><linearGradient id="b" gradientUnits="userSpaceOnUse" x1="7.699" y1="445.5" x2="506.672" y2="445.5"><stop offset=".02"/><stop offset=".023" stop-color="#121212"/><stop offset=".032" stop-color="#444"/><stop offset=".042" stop-color="#707070"/><stop offset=".052" stop-color="#979797"/><stop offset=".064" stop-color="#B7B7B7"/><stop offset=".075" stop-color="#D1D1D1"/><stop offset=".088" stop-color="#E6E6E6"/><stop offset=".103" stop-color="#F4F4F4"/><stop offset=".121" stop-color="#FCFCFC"/><stop offset=".15" stop-color="#fff"/><stop offset=".85" stop-color="#fff"/><stop offset=".879" stop-color="#FCFCFC"/><stop offset=".897" stop-color="#F4F4F4"/><stop offset=".912" stop-color="#E6E6E6"/><stop offset=".925" stop-color="#D1D1D1"/><stop offset=".936" stop-color="#B7B7B7"/><stop offset=".948" stop-color="#979797"/><stop offset=".958" stop-color="#707070"/><stop offset=".968" stop-color="#444"/><stop offset=".977" stop-color="#121212"/><stop offset=".98"/></linearGradient><path fill="url(#b)" d="M7.699 438h498.973v15h-498.973z"/></g></mask><linearGradient id="d" gradientUnits="userSpaceOnUse" x1="257.185" y1="438" x2="257.185" y2="453"><stop offset="0" stop-opacity="0"/><stop offset=".3"/><stop offset="1" stop-opacity="0"/></linearGradient><path opacity=".8" mask="url(#c)" fill="url(#d)" d="M7.699 438h498.973v15h-498.973z"/><linearGradient id="e" gradientUnits="userSpaceOnUse" x1="256.367" y1="71.536" x2="257.352" y2="132.618"><stop offset=".17" stop-color="#ABC2D7"/><stop offset=".506" stop-color="#A9C0D6"/><stop offset=".673" stop-color="#A1BBD3"/><stop offset=".802" stop-color="#94B2CF"/><stop offset=".912" stop-color="#81A6C8"/><stop offset="1" stop-color="#6C97C0"/></linearGradient><path fill="url(#e)" d="M479.844 133.424c-.762-13.83-6.019-21.017-22.87-21.017h-217.402c-7.224 0-18.392-1.315-18.392-12.48.001-18.392-5.91-26.927-26.27-26.927h-114.286c-17.735 0-24.959 7.881-24.959 25.614 0 16.62-18.462 10.741-20.779 34.81h444.958z"/><path opacity=".27" fill="#fff" d="M456.974 113.393h-217.402c-7.224 0-18.392-1.315-18.392-12.48 0-18.393-5.911-26.928-26.271-26.928h-114.285c-9.368 0-15.778 2.224-19.765 6.911 4.021-3.343 9.846-4.94 17.793-4.94h114.289c20.357 0 26.269 8.536 26.269 26.928 0 11.164 11.168 12.48 18.392 12.48h217.401c16.024 0 21.556 6.512 22.718 19.046h2.123c-.762-13.832-6.019-21.017-22.87-21.017zm-415.995 5.355c3.398-3.05 7.11-4.941 9.645-7.941-2.897 2.502-6.556 4.475-9.645 7.941z"/><path opacity=".3" fill="#6C97C0" d="M121.911 86.626h2.956v-2.955h-2.956v2.955zm18.062 45.674h2.955v-2.955h-2.955v2.955zm-36.251-8.843h2.955v-2.955h-2.955v2.955zm-24.003-9.449h2.958v-2.955h-2.958v2.955zm80.288-24.753h-2.956v2.956h2.956v-2.956zm-92.274-.831h-2.956v2.955h2.956v-2.955zm-2.198 19.928h2.955v-2.955h-2.955v2.955zm94.445-1.873h2.956v-2.955h-2.956v2.955zm65.253 15.263h2.955v-2.955h-2.955v2.955zm21.963-6.347h2.956v-2.957h-2.956v2.957zm218.206 4.079v2.956h2.955v-2.956h-2.955zm-116.611 6.375h2.955v-2.955h-2.955v2.955zm-51.979 7.575h2.955v-1.862h-2.955v1.862zm134.934-17.362h2.955v-2.956h-2.955v2.956zm-11.012 11.436h2.956v-2.956h-2.956v2.956zm-40.961-15.079h2.955v-.012h-2.955v.012z"/><g fill="#6C97C0"><path d="M80.179 109.107l1.024-1.217-.771-.647-1.54 1.831 1.624 1.367.515-.615zM79.775 96.363l.849-1.346-.853-.538-1.275 2.029 1.795 1.129.429-.681zM112.109 117.04l1.142-1.111-.703-.72-1.716 1.67 1.48 1.52.576-.561zM140.535 112.841l1.024-1.219-.769-.645-1.544 1.832 1.621 1.366.519-.616zM154.412 99.604l.804-1.374-.869-.508-1.21 2.07 1.833 1.07.405-.695zM178.461 97.898l.629-1.462-.924-.397-.947 2.2 1.95.837.316-.738zM201.742 106.639l.295-1.565-.989-.186-.445 2.355 2.085.393.151-.789zM173.551 119.246l.935-1.289-.815-.59-1.406 1.937 1.715 1.247.473-.651zM178.853 126.2l.965-1.265-.798-.611-1.454 1.905 1.688 1.288.487-.64zM230.767 123.676l-.188-1.579-.998.117.276 2.379 2.11-.247-.094-.799zM256.869 128.762l-1.542-.399-.251.976 2.32.599.53-2.056-.778-.199zM285.018 123.553l-1.313.899.569.831 1.979-1.352-1.2-1.752-.661.454zM301.691 121.336l-1.186 1.06.673.75 1.786-1.598-1.416-1.579-.598.536zM330.039 121.891l-1.151 1.099.694.729 1.731-1.656-1.464-1.535-.581.558zM359.418 126.271l-1.254.981.616.792 1.889-1.474-1.303-1.672-.636.495zM389.598 119.523l-1.547.371.234.978 2.328-.558-.492-2.062-.781.186zM410.807 118.026l1.584-.142-.086-1-2.387.211.184 2.113.803-.071zM430.918 120.116l.04 1.591 1.006-.024-.059-2.394-2.121.051.019.806zM447.81 121.998l-.223 1.574.996.143.335-2.371-2.1-.3-.112.796zM456.195 121.675l-.184 1.579.998.117.279-2.38-2.109-.243-.092.797zM399.545 130.003l1.517-.485-.308-.958-2.282.727.644 2.021.769-.244zM322.297 133.786l-1.228 1.013.64.776 1.85-1.523-1.351-1.636-.621.512zM248.556 121.426l-1.36-.824-.524.859 2.048 1.244 1.101-1.815-.686-.415zM193.531 134.082l.861-1.339-.846-.543-1.294 2.015 1.786 1.147.434-.677zM147.341 136.765l1.242-.995-.628-.786-1.87 1.498 1.324 1.657.628-.504zM96.062 130.677l1.258-.974-.616-.795-1.893 1.467 1.298 1.676.635-.491zM193.656 84.385l.27-1.569-.989-.17-.409 2.361 2.091.359.136-.791z"/></g><path stroke="#5088B1" stroke-width=".41" d="M479.844 133.424c-.762-13.83-6.019-21.017-22.87-21.017h-217.402c-7.224 0-18.392-1.315-18.392-12.48.001-18.392-5.91-26.927-26.27-26.927h-114.286c-17.735 0-24.959 7.881-24.959 25.614 0 16.618-18.462 10.741-20.779 34.81h444.958z" fill="none"/><radialGradient id="f" cx="325.454" cy="366.316" r="1.97" gradientTransform="matrix(205.529 0 0 -160.663 -66643.125 59018)" gradientUnits="userSpaceOnUse"><stop offset="0" stop-color="#BFD1E3"/><stop offset=".198" stop-color="#BACDE1"/><stop offset=".434" stop-color="#ABC3DB"/><stop offset=".689" stop-color="#93B3D1"/><stop offset=".957" stop-color="#729BC3"/><stop offset="1" stop-color="#6C97C0"/></radialGradient><path fill="url(#f)" d="M480.538 133.424h-447.602c-20.039 0-26.777 12.52-25.395 27.807 0 0 6.26 68.752 8.315 110.123 2.042 41.377 4.275 143.504 4.275 143.504 0 25.967-.338 28.076 28.567 28.076l417.544.193c27.274 0 28.108.141 28.108-27.773 0 0 .408-66.232 4.257-127.258 3.849-61.002 8.067-126.796 8.067-126.796.978-15.341-5.122-27.876-26.136-27.876"/><path stroke="#5088B1" stroke-width=".41" d="M480.538 133.424h-447.602c-20.039 0-26.777 12.52-25.395 27.807 0 0 6.26 68.752 8.315 110.123 2.042 41.377 4.275 143.504 4.275 143.504 0 25.967-.338 28.076 28.567 28.076l417.544.193c27.274 0 28.108.141 28.108-27.773 0 0 .408-66.232 4.257-127.258 3.849-61.002 8.067-126.796 8.067-126.796.978-15.341-5.122-27.876-26.136-27.876" fill="none"/><path opacity=".3" fill="#6C97C0" d="M394.424 259.893l.874 2.822 2.822-.872-.872-2.822-2.824.872zm-5.006 102.959l1.688 2.428 2.428-1.688-1.688-2.428-2.428 1.688zm8.086-119.419l1.298 2.655 2.655-1.296-1.298-2.655-2.655 1.296zm-85.634 185.333l1.771 2.363 2.365-1.771-1.774-2.365-2.362 1.773zm60.71-262.841l-1.763-2.371-2.372 1.765 1.763 2.371 2.372-1.765zm43.88 243.241l1.329 2.645 2.639-1.326-1.326-2.643-2.642 1.324zm-3.007 27.609l1.244 2.682 2.682-1.244-1.245-2.682-2.681 1.244zm7.413-182.533l-.703-2.871-2.871.703.703 2.871 2.871-.703zm-1.093 28.312l2.637 1.336 1.334-2.637-2.635-1.334-1.336 2.635zm-52.588 51.712l-2.175 2 2.002 2.174 2.172-2.002-1.999-2.172zm-45.998-55.729l.126 2.953 2.956-.129-.129-2.951-2.953.127zm.306-20.705l-2.908.521.521 2.909 2.908-.521-.521-2.909zm-7.066-56.347l1.515 2.539 2.538-1.512-1.515-2.54-2.538 1.513zm114.436-4.234l1.594 2.49 2.491-1.593-1.594-2.49-2.491 1.593zm-101.199-5.491l1.632 2.467 2.466-1.631-1.634-2.467-2.464 1.631zm43.027 40.926l1.472 2.562 2.563-1.471-1.472-2.562-2.563 1.471zm-20.002 12.125l1.177 2.712 2.712-1.177-1.177-2.712-2.712 1.177zm17.967 182.953l.02 2.959 2.955-.021-.019-2.955-2.956.017zm-7.256-13.524l.236 2.947 2.946-.238-.236-2.945-2.946.236zm21.541-280.816l-1.738 1.344 1.807 2.338 2.337-1.807-1.448-1.875h-.958zm-344.029 70.435l-2.712-1.182-1.179 2.711 2.709 1.18 1.182-2.709zm-10.5-70.435l-.197.008 1.262 2.656 2.672-1.268-.666-1.396h-3.071zm457.524 130.373l-2.777-1.01-1.013 2.777 2.78 1.01 1.01-2.777zm-56.553 73.049l.565 2.904 2.899-.562-.562-2.902-2.902.56zm-397.199 41.863l1.852 2.307 2.304-1.852-1.852-2.305-2.304 1.85zm461.074-123.884l-1.304 2.653 2.653 1.303 1.303-2.652-2.652-1.304zm-457.875 99.329l1.08 2.754 2.752-1.084-1.081-2.75-2.751 1.08zm-18.591-123.228l1.765 2.369 2.369-1.766-1.765-2.37-2.369 1.767zm457.134-1.597l2.834.839.839-2.835-2.833-.839-.84 2.835zm-.461-54.203l-2.541 1.513 1.512 2.54 2.541-1.512-1.512-2.541zm-47.94 203.351l1.09 2.748 2.747-1.088-1.09-2.75-2.747 1.09zm9.755-240.346l1.77 2.366 2.367-1.766-1.768-2.371-2.369 1.771zm32.18 77.183l2.803.941.942-2.804-2.803-.94-.942 2.803zm-40.51 138.985l.854 2.832 2.831-.854-.855-2.832-2.83.854zm1.683-212.135l-1.785-2.357-2.355 1.784 1.781 2.357 2.359-1.784zm25.868 276.447l1.102 2.742 2.745-1.104-1.104-2.742-2.743 1.104zm6.839-37.357l2.953.164.164-2.949-2.95-.168-.167 2.953zm-14.292-9.729l.246 2.947 2.944-.246-.244-2.947-2.946.246zm4.491 68.623l1.621 2.471 2.471-1.625-1.622-2.471-2.47 1.625zm-365.347-122.673l2.946.238.239-2.945-2.946-.24-.239 2.947zm39.702-85.537l2.238 1.93 1.931-2.236-2.238-1.931-1.931 2.237zm5.563 110.894l1.055 2.76 2.762-1.053-1.053-2.76-2.764 1.053zm-17.055-40.365l.035 2.955 2.955-.031-.035-2.957-2.955.033zm4.537 102.795l.643 2.883 2.883-.645-.643-2.883-2.883.645zm15.155-216.143l.003 2.956 2.958-.004-.005-2.955-2.956.003zm16.978 180.356l2.205 1.969 1.969-2.203-2.205-1.969-1.969 2.203zm40.894-197.589l-2.602-1.399-1.401 2.604 2.602 1.399 1.401-2.604zm-52.737 260.782l2.627 1.354 1.354-2.625-2.627-1.357-1.354 2.628zm3.009-205.434l-2.1-2.077-2.081 2.101 2.103 2.078 2.078-2.102zm47.558 123.76l2.606 1.393 1.392-2.605-2.606-1.393-1.392 2.605zm-145.327 75.488l1.766 2.371 2.369-1.764-1.765-2.373-2.37 1.766zm439.198-49.718l2.639 1.332 1.329-2.639-2.642-1.33-1.326 2.637zm-391.423-231.089l2.848.796.797-2.848-2.848-.797-.797 2.849zm397.06 250.655l.759.141.052-2.998-.274-.049-.537 2.906zm-29.57 11.262l.765 2.854 2.854-.764-.767-2.857-2.852.767zm-403.257-82.582l.961 2.795 2.793-.957-.958-2.797-2.796.959zm21.878-152.504l2.934.346.35-2.935-2.937-.348-.347 2.937zm-7.087 232.986l2.637 1.338 1.338-2.635-2.637-1.338-1.338 2.635zm3.384-118.534l-2.782-.996-.996 2.781 2.782.996.996-2.781zm162.171-106.344l2.21 1.963 1.959-2.213-2.21-1.959-1.959 2.209zm22.233 171.478l2.233 1.938 1.938-2.229-2.231-1.938-1.94 2.229zm-1.027 21.279l1.475 2.561 2.562-1.477-1.475-2.561-2.562 1.477zm-.924-92.547l-1.887 2.277 2.278 1.883 1.885-2.277-2.276-1.883zm18.493-61.62l1.23 2.686 2.687-1.231-1.23-2.686-2.687 1.231zm16.168-29.689l1.68 2.431 2.431-1.681-1.681-2.431-2.43 1.681zm7.218 169.321l1.45 2.574 2.576-1.453-1.451-2.574-2.575 1.453zm-50.102 9.756l1.666 2.441 2.44-1.666-1.667-2.439-2.439 1.664zm38.513-104.272l.236 2.945 2.948-.236-.239-2.946-2.945.237zm-1.536-84.114l-2.33 1.819 1.816 2.329 2.332-1.816-1.818-2.332zm-43.13 101.538l.059 2.953 2.955-.059-.061-2.953-2.953.059zm-18.506-77.834l2.109 2.07 2.07-2.109-2.112-2.07-2.067 2.109zm-30.26 90.722l1.803 2.344 2.341-1.801-1.802-2.344-2.342 1.801zm30.853-138.015l2.468 1.629 1.626-2.467-2.463-1.627-1.631 2.465zm-20.166 274.906l1.232 2.686 2.687-1.23-1.233-2.688-2.686 1.232zm1.793-192.858l2.93.392.392-2.932-2.933-.391-.389 2.931zm16.041 127.401l1.075 2.754 2.754-1.074-1.075-2.754-2.754 1.074zm84.916-27.714l1.845 2.309 2.309-1.844-1.843-2.309-2.311 1.844zm-86.067-169.285l-1.699 2.417 2.417 1.701 1.699-2.418-2.417-1.7zm2.7 93.75l.122 2.951 2.953-.124-.122-2.951-2.953.124z"/><g fill="#6C97C0"><path d="M131.214 227.085l1.591-.048-.031-1.007-2.395.072.063 2.121.804-.024zM159.948 250.59l.985-1.251-.792-.621-1.48 1.882 1.667 1.312.496-.633zM206.539 284.015l-.283-1.566-.989.179.426 2.356 2.091-.377-.147-.791zM235.984 316.045l-.804-1.373-.869.506 1.211 2.068 1.829-1.07-.404-.694zM278.867 351.166l-.844-1.348-.852.532 1.274 2.033 1.798-1.131-.429-.68zM315.102 372.594l-1.139-1.11-.703.721 1.716 1.672 1.481-1.52-.574-.56zM359.765 362.547l-1.212 1.029.649.768 1.828-1.549-1.371-1.619-.614.519zM386.729 335.264l-1.429.691.433.906 2.159-1.041-.919-1.91-.727.348zM394.857 313.096l-1.384.785.496.875 2.084-1.182-1.045-1.844-.699.395zM354.191 277.423l-1.289.938.593.814 1.939-1.412-1.25-1.713-.652.473zM300.758 270.054l-1.5-.527-.332.949 2.262.795.703-2.002-.76-.264zM277.363 283.878l-.254-1.57-.993.16.38 2.367 2.095-.337-.126-.793zM363.043 380.832l1.475.607.379-.931-2.214-.91-.807 1.961.743.304zM413.378 414.988l-1.582-.183-.115 1 2.377.275.248-2.107-.802-.09zM421.64 429.293l-1.503-.52-.328.95 2.266.783.692-2.006-.762-.262zM380.978 429.686l-1.383-.791-.499.873 2.081 1.191 1.05-1.842-.696-.398zM385.367 409.715l-1.562-.283-.181.99 2.355.43.382-2.088-.792-.147zM417.484 374.84l-1.467.619.393.928 2.206-.936-.825-1.951-.743.311zM434.957 323.205l-1.418.725.457.896 2.133-1.092-.966-1.886-.715.365zM457.727 275.533l-1.339.859.544.846 2.015-1.295-1.146-1.783-.677.433zM377.872 271.384l-1.364.824.52.862 2.051-1.238-1.097-1.817-.689.414zM324.289 227.92l-1.497.535.337.946 2.258-.807-.718-1.995-.755.27zM249.048 193.905l-1.315-.898-.567.829 1.976 1.355 1.2-1.75-.663-.456zM185.565 198.048l1.462-.629-.398-.926-2.203.951.844 1.947.736-.319zM140.539 195.389l1.59.073.047-1.005-2.391-.111-.101 2.119.804.036zM130.851 177.047l1.548.362.228-.982-2.332-.542-.483 2.066.786.184zM95.08 178.891l1.465.623.393-.924-2.203-.941-.832 1.952.739.315zM64.396 214.001l1.413.729.462-.891-2.126-1.103-.977 1.883.715.371zM60.98 256.809l1.304.911.576-.825-1.964-1.372-1.213 1.74.658.46zM86.326 299.938l1.435.695.438-.906-2.156-1.045-.926 1.91.724.349zM83.746 337.648l1.5.534.337-.948-2.257-.8-.71 1.998.759.267zM102.672 364.658l1.591.043.028-1.006-2.395-.066-.059 2.121.804.023zM172.707 394.156l.448-1.525-.966-.283-.672 2.297 2.037.597.224-.771zM186.852 363.844l-.028-1.592-1.006.018.04 2.396 2.121-.037-.011-.805zM161.34 306.201l.584-1.478-.938-.371-.879 2.228 1.974.779.295-.748zM138.833 313.541l1.406-.742-.468-.891-2.119 1.117.989 1.877.713-.375zM95.094 336.768l1.535.42.266-.971-2.312-.633-.56 2.047.776.213zM70.203 370.561l1.567.281.179-.992-2.357-.424-.377 2.088.792.142zM84.828 395.672l1.585-.145-.089-1-2.388.213.192 2.115.799-.074zM196.625 391.031l-.067-1.592-1.003.041.097 2.397 2.121-.09-.035-.803zM276.348 409.812l-.868-1.332-.843.547 1.308 2.01 1.777-1.158-.439-.676zM342.069 421.703l-1.235-1-.635.781 1.861 1.508 1.336-1.648-.626-.506zM388.267 431.98l-1.397-.763-.483.883 2.105 1.148 1.015-1.861-.706-.387zM355.628 397.82l-1.386-.785-.496.875 2.083 1.184 1.048-1.846-.701-.396zM312.927 335.76l-1.083-1.17-.736.685 1.624 1.758 1.559-1.441-.549-.588zM304.025 313.609l-.756-1.398-.886.477 1.138 2.109 1.869-1.012-.385-.707zM335.715 360.152l-.801-1.377-.87.506 1.205 2.071 1.835-1.067-.405-.693zM344.05 388.971l-1.331-.877-.551.842 1.999 1.318 1.167-1.772-.673-.443zM336.57 380.453l-1.302-.914-.577.824 1.959 1.379 1.219-1.738-.656-.463zM275.113 388.279l-.842-1.349-.853.531 1.264 2.035 1.799-1.121-.421-.684zM203.094 396.709l-.19-1.58-.998.123.285 2.379 2.106-.256-.097-.797zM333.414 396.766l-1.245-.993-.626.789 1.873 1.493 1.322-1.66-.629-.5zM377.352 373.836l-.258-1.57-.993.164.388 2.365 2.093-.344-.131-.795zM403.991 339.498l-1.428.703.444.903 2.149-1.057-.935-1.906-.72.357zM418.36 297.283l-1.356.832.527.858 2.041-1.25-1.106-1.809-.689.42zM400.33 272.187l-1.312.902.572.83 1.972-1.361-1.204-1.744-.663.455zM362.008 247.574l-1.552.364.228.979 2.334-.542-.479-2.066-.785.179zM391.229 236.333l-1.272.954.606.804 1.914-1.439-1.276-1.695-.644.483zM430.68 227.747l-1.207 1.036.651.763 1.823-1.554-1.378-1.615-.612.523zM452.629 231.029l-1.224 1.016.642.776 1.843-1.529-1.355-1.633-.619.513zM419.438 210.129l-1.183 1.064.673.748 1.783-1.601-1.418-1.577-.6.536zM320.807 172.617l-.047-1.589-1.006.031.07 2.394 2.121-.062-.023-.804zM263.898 145.439l1.348-.846-.537-.853-2.029 1.276 1.129 1.797.682-.43zM200.887 155.521l1.46-.633-.402-.925-2.198.953.844 1.947.736-.319zM171.751 158.401l1.582-.18-.114-1-2.382.272.241 2.109.8-.092zM131.038 163.993l1.544.382.244-.975-2.325-.578-.511 2.06.781.192zM86.023 171.328l1.458.637.404-.922-2.197-.962-.85 1.943.738.324zM64.305 176.137l1.441.675.426-.913-2.17-1.015-.898 1.923.727.339zM58.365 167.023l1.451.657.414-.916-2.183-.99-.875 1.933.734.333zM72.836 154.095l1.467.62.391-.929-2.208-.931-.825 1.956.741.311zM47.395 168.034l1.453.654.41-.92-2.185-.981-.87 1.936.735.328zM34.101 198.152l1.431.693.439-.905-2.157-1.043-.923 1.91.724.349zM31.988 238.853l1.376.799.507-.872-2.072-1.2-1.065 1.833.695.405zM35.82 281.601l1.325.883.558-.84-1.995-1.326-1.177 1.765.671.448zM77.39 241.312l1.344.848.537-.851-2.025-1.278-1.134 1.793.682.43zM86.638 217.853l1.424.713.451-.898-2.142-1.074-.949 1.895.717.36zM82.75 253.295l1.345.849.539-.854-2.028-1.274-1.131 1.793.679.428zM62.314 316.129l1.393.773.489-.881-2.097-1.16-1.027 1.856.703.388zM46.508 344.092l1.441.678.427-.913-2.168-1.017-.902 1.92.729.342zM38.512 370.113l1.527.446.281-.969-2.299-.668-.592 2.037.773.225zM30.594 384.756l1.57.252.157-.996-2.364-.375-.333 2.093.794.127zM33.948 358.963l1.489.56.356-.939-2.243-.846-.748 1.985.753.283zM42.106 313.5l1.365.816.517-.863-2.054-1.23-1.09 1.82.688.412zM101.157 288.316l1.491.551.349-.946-2.247-.83-.734 1.991.755.279zM136.771 291.082l1.411-.735-.462-.892-2.128 1.103.977 1.883.715-.371zM175.827 351.611l.228-1.572-.996-.146-.34 2.373 2.099.3.116-.796zM230.685 399.236l-.528-1.5-.949.334.797 2.258 2.002-.703-.27-.76zM320.184 427.564l-1.095-1.154-.732.692 1.648 1.738 1.54-1.461-.553-.58zM357.348 426.943l-1.301-.918-.581.823 1.957 1.381 1.225-1.733-.658-.461zM391.138 422.176l-1.474-.602-.378.934 2.218.906.801-1.965-.745-.304zM411.359 426.879l-1.506-.508-.322.953 2.272.764.675-2.012-.762-.258zM425.879 418.352l-1.561-.307-.197.986 2.354.465.41-2.082-.787-.154zM432.512 385.297l-1.469.615.389.928 2.21-.926-.818-1.957-.743.313zM437.882 339.273l-1.442.678.429.908 2.166-1.015-.902-1.922-.727.344zM463.36 285.886l-1.361.821.521.863 2.05-1.235-1.092-1.82-.689.416zM488.947 230.914l-1.275.954.607.806 1.915-1.441-1.275-1.694-.642.482zM488.122 215.513l-1.23 1.007.637.779 1.854-1.517-1.34-1.643-.624.509zM490.035 193.98l-1.177 1.071.675.746 1.775-1.612-1.425-1.571-.598.542zM495.142 174.711l-1.127 1.124.71.712 1.699-1.691-1.498-1.504-.57.57zM486.711 170.731l-1.11 1.14.721.701 1.671-1.714-1.518-1.481-.561.575zM466.618 223.895l-1.223 1.016.644.774 1.84-1.533-1.355-1.63-.618.514zM251.057 235.605l-1.584-.138-.087 1.005 2.385.206.186-2.114-.805-.071zM230.678 228.873l.649 1.452.916-.411-.977-2.185-1.936.865.328.735zM186.523 219.768l1.239-1.003-.633-.781-1.863 1.508 1.336 1.647.627-.505zM191.479 227.597l1.115-1.139-.719-.704-1.676 1.712 1.514 1.485.562-.575zM243.772 226.308l-1.586-.123-.078 1.002 2.391.187.161-2.117-.801-.062zM301.014 306.359l.03-1.589-1.008-.018-.042 2.396 2.121.038.014-.807zM337.431 352.307l1.533.422.269-.971-2.311-.635-.56 2.047.774.213z"/></g><path opacity=".27" fill="#fff" d="M480.856 133.424h-447.602c-18.979 0-26.016 12.93-25.532 29.243.377-14.977 7.646-26.468 25.532-26.468h447.603c19.073 0 25.838 11.898 26.198 27.297.406-16.725-5.991-30.072-26.199-30.072z"/><path fill="#6790B7" d="M496.67 285.464c-3.818 61.026-4.221 127.26-4.221 127.26 0 27.912-.828 27.773-27.887 27.773l-414.248-.197c-28.678 0-28.346-2.107-28.346-28.074 0 0-2.215-102.129-4.239-143.502-2.041-41.37-10.938-115.442-10.218-107.494 0 0 6.26 68.752 8.315 110.123 2.039 41.375 4.275 143.502 4.275 143.502 0 25.965-.338 28.074 28.567 28.074l417.544.197c27.274 0 28.108.139 28.108-27.775 0 0 .408-66.232 4.257-127.258 3.848-61 8.066-126.794 8.066-126.794.51-7.972-6.155 63.166-9.973 124.165z"/><g stroke="#5088B1" stroke-width=".164" fill="none"><path d="M466.243 443.127l-417.544-.193c-28.905 0-28.567-2.109-28.567-28.076 0 0-2.233-102.127-4.275-143.504-2.056-41.372-8.316-110.124-8.316-110.124-1.383-15.287 5.355-27.807 25.395-27.807h447.603c21.014 0 27.114 12.535 26.138 27.875 0 0-4.219 65.794-8.067 126.796-3.849 61.026-4.257 127.258-4.257 127.258-.001 27.916-.835 27.775-28.11 27.775M480.538 133.424h-447.602c-20.039 0-26.777 12.52-25.395 27.807 0 0 6.26 68.752 8.315 110.123 2.042 41.377 4.275 143.504 4.275 143.504 0 25.967-.338 28.076 28.567 28.076l417.544.193c27.274 0 28.108.141 28.108-27.773 0 0 .408-66.232 4.257-127.258 3.849-61.002 8.067-126.796 8.067-126.796.978-15.341-5.122-27.876-26.136-27.876"/></g></svg>