<svg xmlns="http://www.w3.org/2000/svg" height="60" width="144"><defs><linearGradient id="a" y2="57.5" gradientUnits="userSpaceOnUse" x2="2.5" y1="2.5" x1="2.5"><stop stop-color="#d8432f" offset="0"/><stop stop-color="#c52127" offset="1"/></linearGradient></defs><rect fill-rule="evenodd" ry="4.286" height="60" width="60" fill="url(#a)"/><g fill="#40454f"><path d="M77.108 28.094c-.318-.201-.668-.346-1.048-.435-.37-.1-.781-.151-1.232-.151-1.602 0-2.835.569-3.697 1.708-.852 1.128-1.279 2.752-1.279 4.873v9.88h-2.85v-18.755h2.85v2.914c.596-1.139 1.371-1.982 2.326-2.529.955-.558 2.116-.837 3.482-.837.195 0 .411.017.647.05.236.022.498.061.786.117l.015 3.165M87.953 34.542c-2.29 0-3.877.285-4.76.854s-1.325 1.541-1.325 2.914c0 1.094.329 1.965.986 2.612.668.636 1.571.955 2.711.955 1.571 0 2.829-.603 3.774-1.809.955-1.217 1.433-2.83 1.433-4.839v-.687h-2.819m5.654-1.273v10.7h-2.835v-2.847c-.647 1.139-1.453 1.982-2.419 2.529-.965.536-2.146.804-3.543.804-1.766 0-3.173-.536-4.221-1.608-1.037-1.083-1.556-2.529-1.556-4.337 0-2.11.647-3.701 1.941-4.773 1.304-1.072 3.245-1.608 5.823-1.608h3.974v-.301c0-1.418-.431-2.512-1.294-3.282-.852-.781-2.054-1.172-3.605-1.172-.986 0-1.946.128-2.881.385-.935.257-1.833.642-2.696 1.155v-2.847c1.037-.435 2.044-.759 3.019-.971.976-.223 1.926-.335 2.85-.335 2.496 0 4.36.703 5.592 2.11 1.232 1.407 1.849 3.539 1.849 6.397M95.427 25.213h3.004l5.392 15.741 5.392-15.741h3.004l-6.47 18.755h-3.851l-6.47-18.755M114.329 25.213h2.835v18.755h-2.835v-18.755m0-7.301h2.835v3.902h-2.835v-3.902"/><path d="M133.31 25.766v2.914c-.801-.447-1.633-.781-2.496-1.005-.863-.223-1.756-.335-2.68-.335-1.407 0-2.465.234-3.173.703-.698.469-1.048 1.172-1.048 2.11 0 .714.252 1.278.755 1.691.503.402 1.515.787 3.035 1.155l.971.234c2.013.469 3.44 1.133 4.283 1.993.852.848 1.279 2.037 1.279 3.567 0 1.742-.637 3.12-1.91 4.136-1.263 1.016-3.004 1.524-5.222 1.524-.924 0-1.89-.1-2.896-.301-.996-.19-2.049-.48-3.158-.871v-3.182c1.048.592 2.08 1.038 3.096 1.34 1.017.29 2.023.435 3.019.435 1.335 0 2.362-.246 3.081-.737.719-.502 1.078-1.206 1.078-2.11 0-.837-.262-1.479-.786-1.926-.514-.447-1.648-.876-3.405-1.289l-.986-.251c-1.756-.402-3.025-1.016-3.805-1.842-.781-.837-1.171-1.982-1.171-3.433 0-1.764.575-3.126 1.725-4.086 1.15-.96 2.783-1.44 4.899-1.44 1.048 0 2.033.084 2.958.251.924.167 1.777.419 2.557.754"/></g><path d="M21.534 42.931h4.006v-26.458h-6.01v4.992h-9.014v-12.979h39.062v12.979h-8.514v-4.992h-6.51v26.458h4.006l-.129 8.275-16.898.211z" transform="scale(.998 1.002)" stroke="#FFF" stroke-width="2" fill="none"/></svg>